<mxfile host="app.diagrams.net" modified="2023-11-03T03:13:57.338Z" agent="Mozilla/5.0 (Windows NT 10.0; Win64; x64) AppleWebKit/537.36 (KHTML, like Gecko) Chrome/119.0.0.0 Safari/537.36" etag="3mAe-IhoTmyVC1T6GEC2" version="22.0.8" type="device">
  <diagram id="C5RBs43oDa-KdzZeNtuy" name="Page-1">
    <mxGraphModel dx="1249" dy="1838" grid="1" gridSize="10" guides="1" tooltips="1" connect="1" arrows="1" fold="1" page="1" pageScale="1" pageWidth="827" pageHeight="1169" math="0" shadow="0">
      <root>
        <mxCell id="WIyWlLk6GJQsqaUBKTNV-0" />
        <mxCell id="WIyWlLk6GJQsqaUBKTNV-1" parent="WIyWlLk6GJQsqaUBKTNV-0" />
        <mxCell id="ODOgHykXVtXJyPB-smyK-22" value="" style="rounded=0;whiteSpace=wrap;html=1;" vertex="1" parent="WIyWlLk6GJQsqaUBKTNV-1">
          <mxGeometry x="310" y="-235" width="410" height="610" as="geometry" />
        </mxCell>
        <mxCell id="ODOgHykXVtXJyPB-smyK-4" value="사용자&lt;br&gt;" style="shape=umlActor;verticalLabelPosition=bottom;verticalAlign=top;html=1;outlineConnect=0;" vertex="1" parent="WIyWlLk6GJQsqaUBKTNV-1">
          <mxGeometry x="200" y="30" width="30" height="60" as="geometry" />
        </mxCell>
        <mxCell id="ODOgHykXVtXJyPB-smyK-16" value="익명 게시판" style="text;html=1;strokeColor=none;fillColor=none;align=center;verticalAlign=middle;whiteSpace=wrap;rounded=0;" vertex="1" parent="WIyWlLk6GJQsqaUBKTNV-1">
          <mxGeometry x="470" y="-240" width="90" height="30" as="geometry" />
        </mxCell>
        <mxCell id="ODOgHykXVtXJyPB-smyK-17" value="게시글 작성" style="ellipse;whiteSpace=wrap;html=1;" vertex="1" parent="WIyWlLk6GJQsqaUBKTNV-1">
          <mxGeometry x="455" y="-200" width="120" height="80" as="geometry" />
        </mxCell>
        <mxCell id="ODOgHykXVtXJyPB-smyK-19" value="게시글 목록 조회" style="ellipse;whiteSpace=wrap;html=1;" vertex="1" parent="WIyWlLk6GJQsqaUBKTNV-1">
          <mxGeometry x="455" y="-80" width="120" height="80" as="geometry" />
        </mxCell>
        <mxCell id="ODOgHykXVtXJyPB-smyK-20" value="게시글 조회" style="ellipse;whiteSpace=wrap;html=1;" vertex="1" parent="WIyWlLk6GJQsqaUBKTNV-1">
          <mxGeometry x="455" y="30" width="120" height="80" as="geometry" />
        </mxCell>
        <mxCell id="ODOgHykXVtXJyPB-smyK-21" value="게시글 수정" style="ellipse;whiteSpace=wrap;html=1;" vertex="1" parent="WIyWlLk6GJQsqaUBKTNV-1">
          <mxGeometry x="455" y="140" width="120" height="80" as="geometry" />
        </mxCell>
        <mxCell id="ODOgHykXVtXJyPB-smyK-23" value="게시글 삭제" style="ellipse;whiteSpace=wrap;html=1;" vertex="1" parent="WIyWlLk6GJQsqaUBKTNV-1">
          <mxGeometry x="455" y="250" width="120" height="80" as="geometry" />
        </mxCell>
        <mxCell id="ODOgHykXVtXJyPB-smyK-26" value="" style="endArrow=classic;html=1;rounded=0;entryX=0;entryY=1;entryDx=0;entryDy=0;exitX=0.5;exitY=0.5;exitDx=0;exitDy=0;exitPerimeter=0;" edge="1" parent="WIyWlLk6GJQsqaUBKTNV-1" source="ODOgHykXVtXJyPB-smyK-4" target="ODOgHykXVtXJyPB-smyK-17">
          <mxGeometry width="50" height="50" relative="1" as="geometry">
            <mxPoint x="290" y="30" as="sourcePoint" />
            <mxPoint x="340" y="-20" as="targetPoint" />
          </mxGeometry>
        </mxCell>
        <mxCell id="ODOgHykXVtXJyPB-smyK-27" value="" style="endArrow=classic;html=1;rounded=0;exitX=0.5;exitY=0.5;exitDx=0;exitDy=0;exitPerimeter=0;" edge="1" parent="WIyWlLk6GJQsqaUBKTNV-1" source="ODOgHykXVtXJyPB-smyK-4" target="ODOgHykXVtXJyPB-smyK-19">
          <mxGeometry width="50" height="50" relative="1" as="geometry">
            <mxPoint x="225" y="82" as="sourcePoint" />
            <mxPoint x="483" y="-110" as="targetPoint" />
          </mxGeometry>
        </mxCell>
        <mxCell id="ODOgHykXVtXJyPB-smyK-29" value="" style="endArrow=classic;html=1;rounded=0;exitX=0.5;exitY=0.5;exitDx=0;exitDy=0;exitPerimeter=0;" edge="1" parent="WIyWlLk6GJQsqaUBKTNV-1" source="ODOgHykXVtXJyPB-smyK-4" target="ODOgHykXVtXJyPB-smyK-20">
          <mxGeometry width="50" height="50" relative="1" as="geometry">
            <mxPoint x="235" y="80" as="sourcePoint" />
            <mxPoint x="493" y="-112" as="targetPoint" />
          </mxGeometry>
        </mxCell>
        <mxCell id="ODOgHykXVtXJyPB-smyK-31" value="" style="endArrow=classic;html=1;rounded=0;exitX=0.5;exitY=0.5;exitDx=0;exitDy=0;exitPerimeter=0;" edge="1" parent="WIyWlLk6GJQsqaUBKTNV-1" source="ODOgHykXVtXJyPB-smyK-4" target="ODOgHykXVtXJyPB-smyK-21">
          <mxGeometry width="50" height="50" relative="1" as="geometry">
            <mxPoint x="245" y="90" as="sourcePoint" />
            <mxPoint x="503" y="-102" as="targetPoint" />
          </mxGeometry>
        </mxCell>
        <mxCell id="ODOgHykXVtXJyPB-smyK-32" value="" style="endArrow=classic;html=1;rounded=0;entryX=0;entryY=0.5;entryDx=0;entryDy=0;exitX=0.5;exitY=0.5;exitDx=0;exitDy=0;exitPerimeter=0;" edge="1" parent="WIyWlLk6GJQsqaUBKTNV-1" source="ODOgHykXVtXJyPB-smyK-4" target="ODOgHykXVtXJyPB-smyK-23">
          <mxGeometry width="50" height="50" relative="1" as="geometry">
            <mxPoint x="255" y="100" as="sourcePoint" />
            <mxPoint x="513" y="-92" as="targetPoint" />
          </mxGeometry>
        </mxCell>
      </root>
    </mxGraphModel>
  </diagram>
</mxfile>
